<?xml version="1.0" encoding="iso-8859-1"?>
<!-- Generator: Adobe Illustrator 19.0.0, SVG Export Plug-In . SVG Version: 6.00 Build 0)  -->
<svg version="1.1" id="Capa_1" xmlns="http://www.w3.org/2000/svg" xmlns:xlink="http://www.w3.org/1999/xlink" x="0px" y="0px"
	 viewBox="0 0 512 512" style="enable-background:new 0 0 512 512;" xml:space="preserve">
<g>
	<g>
		<g>
			<rect x="160" y="192" width="32" height="96"/>
			<rect x="320" y="192" width="32" height="96"/>
			<path d="M144,368v32c0,26.51,21.49,48,48,48h128c26.51,0,48-21.49,48-48v-32c0-26.51-21.49-48-48-48h-16v32h16
				c8.837,0,16,7.163,16,16v32c0,8.837-7.163,16-16,16H192c-8.837,0-16-7.163-16-16v-32c0-8.837,7.163-16,16-16h16v-32h-16
				C165.49,320,144,341.49,144,368z"/>
			<rect x="224" y="128" width="64" height="32"/>
			<rect x="416" y="320" width="32" height="32"/>
			<rect x="224" y="224" width="64" height="32"/>
			<path d="M432,64h-96V48c0-26.51-21.49-48-48-48h-64c-26.51,0-48,21.49-48,48v16H80c-26.51,0-48,21.49-48,48v96
				c0.084,20.269,12.89,38.3,32,45.056V464c0,26.51,21.49,48,48,48h288c26.51,0,48-21.49,48-48v-80h-32v80c0,8.837-7.163,16-16,16
				H112c-8.837,0-16-7.163-16-16V256h32v-32H80c-8.837,0-16-7.163-16-16v-96c0-8.837,7.163-16,16-16h352c8.837,0,16,7.163,16,16v96
				c0,8.837-7.163,16-16,16h-48v32h32v32h32v-34.944c19.11-6.756,31.916-24.787,32-45.056v-96C480,85.49,458.51,64,432,64z M304,64
				h-96V48c0-8.837,7.163-16,16-16h64c8.837,0,16,7.163,16,16V64z"/>
			<rect x="240" y="320" width="32" height="32"/>
		</g>
	</g>
</g>
<g>
</g>
<g>
</g>
<g>
</g>
<g>
</g>
<g>
</g>
<g>
</g>
<g>
</g>
<g>
</g>
<g>
</g>
<g>
</g>
<g>
</g>
<g>
</g>
<g>
</g>
<g>
</g>
<g>
</g>
</svg>
