<?xml version="1.0" encoding="UTF-8"?>
<svg width="24px" height="24px" viewBox="0 0 24 24" version="1.1" xmlns="http://www.w3.org/2000/svg" xmlns:xlink="http://www.w3.org/1999/xlink">
    <title>016FF137-020C-42E8-8FCE-16674F436CD1@1.00x</title>
    <g id="Page-1" stroke="none" stroke-width="1" fill="none" fill-rule="evenodd">
        <g id="7" transform="translate(-317.000000, -147.000000)" fill="#FFFFFF" fill-rule="nonzero">
            <path d="M337,158 C337.512836,158 337.935507,158.38604 337.993272,158.883379 L338,159 L338,168 C338,169.597681 336.75108,170.903661 335.176273,170.994907 L335,171 L323,171 C321.402319,171 320.096339,169.75108 320.005093,168.176273 L320,168 L320,159 C320,158.447715 320.447715,158 321,158 C321.512836,158 321.935507,158.38604 321.993272,158.883379 L322,159 L322,168 C322,168.512836 322.38604,168.935507 322.883379,168.993272 L323,169 L335,169 C335.512836,169 335.935507,168.61396 335.993272,168.116621 L336,168 L336,159 C336,158.447715 336.447715,158 337,158 Z M333,147 C333.512836,147 333.935507,147.38604 333.993272,147.883379 L334,148 L334,151 L340,151 C340.512836,151 340.935507,151.38604 340.993272,151.883379 L341,152 L341,156 C341,156.552285 340.552285,157 340,157 L340,157 L318,157 C317.447715,157 317,156.552285 317,156 L317,156 L317,152 C317,151.447715 317.447715,151 318,151 L318,151 L324,151 L324,148 C324,147.487164 324.38604,147.064493 324.883379,147.006728 L325,147 L333,147 Z M339,153 L319,153 L319,155 L339,155 L339,153 Z M332,149 L326,149 L326,151 L332,151 L332,149 Z" id="icon-remove-big"></path>
        </g>
    </g>
</svg>