<?xml version="1.0" encoding="UTF-8"?>
<svg width="24px" height="24px" viewBox="0 0 24 24" version="1.1" xmlns="http://www.w3.org/2000/svg" xmlns:xlink="http://www.w3.org/1999/xlink">
    <title>2EF086E5-5163-44E4-8362-93D4D20084B1@1.00x</title>
    <g id="Page-1" stroke="none" stroke-width="1" fill="none" fill-rule="evenodd">
        <g id="icon-backpack">
            <g>
                <rect id="Rectangle" x="0" y="0" width="24" height="24"></rect>
                <g transform="translate(2.000000, 0.000000)" fill="#101928" fill-rule="nonzero" id="Combined-Shape">
                    <path d="M10,0 C12.1840337,0 13.8936145,1.64339799 13.9952199,3.79667143 L14,4 L14.0010001,4.07175599 C17.3829543,4.56062546 20,7.48741924 20,11 L20,11 L20,23 C20,23.5522847 19.5522847,24 19,24 L19,24 L1,24 C0.44771525,24 0,23.5522847 0,23 L0,23 L0,11 C0,7.48707331 2.61756123,4.56004898 5.99999908,4.07161162 L6,4 C6,1.74771525 7.74771525,0 10,0 Z M12,14 L8,14 C4.65228475,14 2,16.6522847 2,20 L2,22 L18,22 L18,20 L18,20 C18,16.7283692 15.4669037,14.1209176 12.2271527,14.004087 L12,14 Z M12,6 L8,6 L8,7 C8,7.55228475 7.55228475,8 7,8 C6.48716416,8 6.06449284,7.61395981 6.00672773,7.11662113 L6,7 L6.00001156,6.10137238 C3.72630342,6.56858434 2,8.59442644 2,11 L2,11 L1.99947338,14.6820754 C3.40877229,13.0900217 5.4495524,12.0729717 7.74896771,12.0037712 L8,12 L12,12 C14.4021652,12 16.5410116,13.0327344 18.0014123,14.6830762 L18,11 C18,8.59474011 16.2741468,6.56911266 14.0008778,6.10155523 L14,7 C14,7.55228475 13.5522847,8 13,8 C12.4871642,8 12.0644928,7.61395981 12.0067277,7.11662113 L12,7 L12,6 Z M10,2 C8.90445362,2 8.07809083,2.77656524 8.00523046,3.84537685 L8,4 L12,4 C12,2.85228475 11.1477153,2 10,2 Z"></path>
                </g>
            </g>
        </g>
    </g>
</svg>